Coordinates
nRows=237
nColumns=2
inDegrees=yes
endheader
time	ankle_angle_r	
3.45968	  9.490615	
3.49294	  9.501160	
3.52621	  9.384155	
3.55948	  9.460449	
3.59274	  9.434479	
3.62601	  9.429932	
3.65927	  9.424382	
3.69254	  9.433899	
3.72581	  9.378412	
3.75907	  9.475708	
3.79234	  9.374832	
3.8256	  9.378122	
3.85887	  9.384155	
3.89214	  9.447997	
3.9254	  9.375219	
3.95867	  9.417093	
3.99194	  9.353638	
4.0252	  9.392801	
4.05847	  9.451900	
4.09173	  9.431579	
4.125	  9.423029	
4.15827	  9.506226	
4.19153	  9.475708	
4.2248	  9.475708	
4.25806	  9.575230	
4.29133	  9.460449	
4.3246	  9.491260	
4.35786	  9.513905	
4.39113	  9.483291	
4.4244	  9.498452	
4.45766	  9.506226	
4.49093	  9.514192	
4.52419	  9.482903	
4.55746	  9.544903	
4.59073	  9.559005	
4.62399	  9.497872	
4.65726	  9.565620	
4.69052	  9.490967	
4.72379	  9.506226	
4.75706	  9.528004	
4.79032	  9.506226	
4.82359	  9.494685	
4.85685	  9.506226	
4.89012	  9.552002	
4.92339	  9.460449	
4.95665	  9.445190	
4.98992	  9.451033	
5.02319	  9.450936	
5.05645	  9.403376	
5.08972	  9.384155	
5.12298	  9.409218	
5.15625	  9.445190	
5.18952	  9.435194	
5.22278	  9.404579	
5.25605	  9.485898	
5.28931	  9.379183	
5.32258	  9.393906	
5.35585	  9.409894	
5.38911	  9.451085	
5.42238	  9.373482	
5.45565	  9.438909	
5.48891	  9.403806	
5.52218	  9.395119	
5.55544	  9.460449	
5.58871	  9.445190	
5.62198	  9.415435	
5.65524	  9.506226	
5.68851	  9.498590	
5.72177	  9.471992	
5.75504	  9.498203	
5.78831	  9.521484	
5.82157	  9.489408	
5.85484	  9.506226	
5.8881	  9.506226	
5.92137	  9.509360	
5.95464	  9.506226	
5.9879	  9.515601	
6.02117	  9.509070	
6.05444	  9.506226	
6.0877	  9.531440	
6.12097	  9.480818	
6.15423	  9.534285	
6.1875	  9.432293	
6.22077	  9.495497	
6.25403	  9.521484	
6.2873	  9.523556	
6.32056	  9.529384	
6.35383	  9.534865	
6.3871	  9.508007	
6.42036	  9.540112	
6.45363	  9.519897	
6.4869	  9.432914	
6.52016	  9.493756	
6.55343	  9.582520	
6.58669	  9.536743	
6.61996	  9.553106	
6.65323	  9.505218	
6.68649	  9.552913	
6.71976	  9.539186	
6.75302	  9.537461	
6.78629	  9.506226	
6.81956	  9.507799	
6.85282	  9.552430	
6.88609	  9.521815	
6.91935	  9.506695	
6.95262	  9.491380	
6.98589	  9.490885	
7.01915	  9.506059	
7.05242	  9.521637	
7.08569	  9.490469	
7.11895	  9.459758	
7.15222	  9.506226	
7.18548	  9.460449	
7.21875	  9.474437	
7.25202	  9.462646	
7.28528	  9.445190	
7.31855	  9.487264	
7.35181	  9.487899	
7.38508	  9.428812	
7.41835	  9.427500	
7.45161	  9.522797	
7.48488	  9.471480	
7.51815	  9.399414	
7.55141	  9.458847	
7.58468	  9.392617	
7.61794	  9.428136	
7.65121	  9.431825	
7.68448	  9.353638	
7.71774	  9.425759	
7.75101	  9.462632	
7.78427	  9.429932	
7.81754	  9.425179	
7.85081	  9.445190	
7.88407	  9.488398	
7.91734	  9.442524	
7.9506	  9.490967	
7.98387	  9.362216	
8.01714	  9.488010	
8.0504	  9.490967	
8.08367	  9.445190	
8.11694	  9.465969	
8.1502	  9.426589	
8.18347	  9.457009	
8.21673	  9.453377	
8.25	  9.445190	
8.28327	  9.429932	
8.31653	  9.437537	
8.3498	  9.536743	
8.38306	  9.410653	
8.41633	  9.441074	
8.4496	  9.456236	
8.48286	  9.453810	
8.51613	  9.486560	
8.5494	  9.454197	
8.58266	  9.440591	
8.61593	  9.435798	
8.64919	  9.440397	
8.68246	  9.429932	
8.71573	  9.419660	
8.74899	  9.511317	
8.78226	  9.424751	
8.81552	  9.429932	
8.84879	  9.485594	
8.88206	  9.395096	
8.91532	  9.485400	
8.94859	  9.435596	
8.98185	  9.450951	
9.01512	  9.408816	
9.04839	  9.512179	
9.08165	  9.423882	
9.11492	  9.463414	
9.14819	  9.438947	
9.18145	  9.393074	
9.21472	  9.451628	
9.24798	  9.475708	
9.28125	  9.482338	
9.31452	  9.482435	
9.34778	  9.536743	
9.38105	  9.484046	
9.41431	  9.438173	
9.44758	  9.507257	
9.48085	  9.482919	
9.51411	  9.559309	
9.54738	  9.544599	
9.58065	  9.544501	
9.61391	  9.590181	
9.64718	  9.552131	
9.68044	  9.528953	
9.71371	  9.559889	
9.74698	  9.559277	
9.78024	  9.506226	
9.81351	  9.567261	
9.84677	  9.596489	
9.88004	  9.499337	
9.91331	  9.574052	
9.94657	  9.567261	
9.97984	  9.545403	
10.0131	  9.591277	
10.0464	  9.567261	
10.0796	  9.569903	
10.1129	  9.481919	
10.1462	  9.555032	
10.1794	  9.460449	
10.2127	  9.481629	
10.246	  9.490967	
10.2792	  9.414673	
10.3125	  9.506226	
10.3458	  9.490967	
10.379	  9.434315	
10.4123	  9.490967	
10.4456	  9.490967	
10.4788	  9.490967	
10.5121	  9.536637	
10.5454	  9.465404	
10.5786	  9.475708	
10.6119	  9.500489	
10.6452	  9.481638	
10.6784	  9.445190	
10.7117	  9.449661	
10.745	  9.495341	
10.7782	  9.475708	
10.8115	  9.506226	
10.8448	  9.445190	
10.878	  9.475708	
10.9113	  9.540634	
10.9446	  9.586313	
10.9778	  9.479405	
11.0111	  9.578918	
11.0444	  9.543752	
11.0776	  9.543558	
11.1109	  9.606416	
11.1442	  9.512653	
11.1774	  9.552002	
11.2107	  9.548982	
11.244	  9.549078	
11.2772	  9.511880	
11.3105	  9.572722	
